<svg width="192" height="36" viewBox="0 0 192 36" fill="none" xmlns="http://www.w3.org/2000/svg">
<path d="M32.7772 7.729C32.4345 7.23651 32.067 6.76202 31.6778 6.30733C31.672 6.30085 31.6684 6.29329 31.6627 6.28645C31.6555 6.27817 31.6468 6.27133 31.6396 6.26305C31.2501 5.81088 30.8387 5.37851 30.4067 4.96738C28.0599 2.73209 25.1134 1.12466 21.8302 0.412568C20.5955 0.144723 19.315 0 17.9996 0C16.6845 0 15.404 0.144723 14.1689 0.412568C9.23522 1.48251 5.05608 4.57353 2.54262 8.77734C1.7654 10.077 1.15017 11.4832 0.718543 12.9682C0.253794 14.5659 0 16.2532 0 18.0004C0 21.8053 1.18437 25.333 3.19996 28.2404C3.50272 28.6771 3.82239 29.1012 4.1615 29.5084C4.20866 29.5814 4.25906 29.6531 4.31594 29.7197C4.37966 29.7942 4.44985 29.8626 4.52401 29.9267C4.86816 30.3151 5.22887 30.6874 5.60471 31.0445C7.94933 33.2733 10.8919 34.8768 14.1693 35.5874C15.404 35.8553 16.6849 36 17.9999 36C19.315 36 20.5958 35.8553 21.8306 35.5874C26.7823 34.5139 30.9729 31.4038 33.4835 27.1766C34.2319 25.9169 34.8295 24.5586 35.2547 23.1251C35.7367 21.5 35.9995 19.781 35.9995 18C35.9991 14.1814 34.8065 10.6425 32.7772 7.729ZM29.2029 29.2783C28.2068 30.2676 27.0796 31.1237 25.8521 31.8236C25.455 32.05 25.0478 32.2599 24.6299 32.4521C25.3164 31.6259 25.941 30.6726 26.4928 29.6167C26.2059 29.629 25.9154 29.638 25.6166 29.638C25.1227 29.638 24.6187 29.6167 24.109 29.5822C24.1 29.5969 24.0913 29.6128 24.0823 29.6272C22.3778 32.3862 20.2171 33.9062 17.9996 33.9062C15.7943 33.9062 13.6458 32.4021 11.9456 29.6722C11.9362 29.6567 11.9262 29.6426 11.9164 29.6272C11.821 29.4727 11.7292 29.3139 11.6382 29.1545C11.3005 28.5619 10.9927 27.9344 10.7159 27.2763C10.641 27.0981 10.569 26.9167 10.4984 26.7341C10.2612 26.1178 10.0499 25.4777 9.86628 24.8164C9.35366 24.5014 8.85759 24.1766 8.37952 23.8433C8.31688 23.938 8.25244 24.033 8.19196 24.1266C8.01881 24.3959 7.86401 24.6501 7.72289 24.8931C7.95545 25.7992 8.23264 26.6672 8.54943 27.4912C8.61855 27.6716 8.68839 27.8509 8.76147 28.0266C9.03902 28.6947 9.34502 29.3294 9.67369 29.9303C9.77197 30.1096 9.87276 30.2849 9.97536 30.4581C10.4052 31.1827 10.8699 31.852 11.3692 32.4525C10.9517 32.2602 10.5441 32.0504 10.1471 31.8239C9.62581 31.5266 9.12254 31.2015 8.63979 30.8494C8.43028 30.6964 8.22508 30.5391 8.02385 30.3763C8.3662 30.3086 8.72403 30.2212 9.09698 30.1124C8.76615 29.5001 8.46016 28.8611 8.18512 28.194C7.54686 28.3603 6.99535 28.4424 6.54572 28.4424C6.21921 28.4424 6.03778 28.3977 5.95138 28.3668C5.93518 28.361 5.92114 28.3556 5.91142 28.3513C5.90818 28.3401 5.9053 28.3246 5.90278 28.3106C5.8369 27.9891 5.91826 26.8749 7.08751 24.8059C7.21819 24.5745 7.36722 24.3271 7.5267 24.0715C7.58178 23.983 7.63398 23.8973 7.69266 23.8058C7.75781 23.7043 7.82765 23.6017 7.89533 23.4991C7.70346 23.3591 7.51374 23.2183 7.32798 23.0757C7.08895 22.8925 6.85568 22.7078 6.6278 22.5206C6.4982 22.4144 6.37005 22.3075 6.24441 22.2002C5.32643 23.5614 4.64569 24.8347 4.23782 25.959C4.10714 25.734 3.98186 25.5054 3.86199 25.2736C2.73521 23.0919 2.09443 20.6201 2.09443 18.0004C2.09443 17.8168 2.10199 17.6353 2.10847 17.4532C2.12107 17.078 2.14339 16.7058 2.18191 16.3378C2.98505 17.9921 4.3271 19.6982 6.13101 21.3189C6.25413 21.4298 6.37869 21.54 6.50612 21.6501C6.53096 21.6714 6.55436 21.693 6.5792 21.7146C6.77684 21.8834 6.97915 22.0512 7.18687 22.2171C7.52058 22.485 7.87013 22.7489 8.2294 23.0091C8.38816 23.1247 8.54907 23.2395 8.71287 23.3537C9.01742 23.5654 9.33098 23.7742 9.65173 23.9797C9.8886 24.132 10.1305 24.2821 10.3764 24.4305C10.7313 24.645 11.0921 24.8567 11.4646 25.0626C11.8401 25.2703 12.2185 25.4673 12.5983 25.6588C12.8153 25.7686 13.0324 25.8784 13.2506 25.9828C14.0346 26.3579 14.8255 26.6956 15.6179 27.0031C15.8515 27.0938 16.0855 27.1816 16.3195 27.2666C17.1889 27.5816 18.0568 27.8559 18.9172 28.0878C18.9935 28.3581 19.1307 28.6022 19.3132 28.8053C19.6454 29.1753 20.126 29.4101 20.6628 29.4101C20.9277 29.4101 21.179 29.3517 21.4054 29.2499C21.6592 29.1357 21.8824 28.9662 22.0581 28.7552C22.6435 28.8452 23.2194 28.914 23.7846 28.9619C24.0067 28.9806 24.2267 28.995 24.4449 29.0069C24.8416 29.0288 25.2336 29.0439 25.6166 29.0439C26.0187 29.0439 26.4122 29.031 26.797 29.0065C27.0296 28.9917 27.2589 28.9727 27.4846 28.9489C28.3731 28.856 29.2043 28.6922 29.966 28.4596C29.7209 28.7412 29.4675 29.0155 29.2029 29.2783ZM33.8896 18.5955C33.8759 18.9699 33.8511 19.3414 33.8115 19.7093C33.6797 19.4346 33.5336 19.1596 33.3719 18.8827C33.4454 18.6855 33.4875 18.4731 33.4875 18.2506C33.4875 18.1296 33.4749 18.0115 33.4522 17.897C33.346 17.3603 33.004 16.9085 32.5378 16.655C32.2804 16.515 31.9856 16.4358 31.672 16.4358C31.6432 16.4358 31.6152 16.4387 31.5864 16.4401C31.0665 15.85 30.4844 15.265 29.8451 14.6901C29.731 14.5875 29.615 14.4853 29.497 14.383C29.5251 14.6116 29.5485 14.842 29.5711 15.0728C29.6492 15.8652 29.6946 16.6705 29.7086 17.4841C29.785 17.5662 29.8598 17.6483 29.9336 17.7304C29.8843 17.8956 29.857 18.0698 29.857 18.2513C29.857 18.3604 29.8681 18.4666 29.8865 18.5699C29.9866 19.1347 30.3473 19.6089 30.8405 19.8638C31.082 19.9887 31.3549 20.061 31.6443 20.0654C32.0947 20.8653 32.3931 21.649 32.513 22.3932C32.6879 23.4782 32.4518 24.3527 31.7905 25.0687C31.0781 25.8413 29.884 26.3993 28.3688 26.6985C28.1513 26.7417 27.9274 26.7799 27.6974 26.8119C27.049 26.9019 26.3532 26.9501 25.6166 26.9501C25.5511 26.9501 25.4838 26.9465 25.4176 26.9458C25.2084 26.9433 24.9985 26.9397 24.7858 26.9307C23.952 26.8943 23.0924 26.8033 22.2179 26.6636C22.0038 26.3072 21.6715 26.0307 21.2744 25.8885C21.1214 25.8338 20.9591 25.7988 20.7899 25.787C20.7477 25.7841 20.7056 25.7805 20.6624 25.7805C20.2744 25.7805 19.9154 25.9032 19.6202 26.111C19.2459 26.0123 18.8707 25.9058 18.4949 25.7902C18.2591 25.7178 18.0233 25.6415 17.7875 25.5627C16.9905 25.2966 16.1949 24.9942 15.4066 24.6573C15.1823 24.5619 14.9594 24.4646 14.737 24.3635C13.9723 24.0161 13.216 23.6388 12.4762 23.2295C11.5924 22.7417 10.7555 22.2207 9.9714 21.6775C9.91596 21.639 9.8598 21.6004 9.80473 21.5619C9.69745 21.4863 9.59125 21.4104 9.48649 21.334C9.3713 21.2509 9.25826 21.1666 9.14558 21.0824C8.68947 20.74 8.2546 20.3904 7.84421 20.0358C7.6923 19.9048 7.54398 19.7727 7.39854 19.6398C7.22899 19.485 7.06231 19.3302 6.90211 19.174C6.69008 18.9677 6.48596 18.7603 6.29049 18.5519C4.72093 16.8786 3.71115 15.1628 3.46096 13.6173C3.28492 12.5308 3.52036 11.6545 4.17986 10.9392C4.89768 10.1619 6.10149 9.60175 7.6293 9.30367C7.88849 8.52389 8.18332 7.7722 8.51236 7.05362C7.62534 7.14542 6.79592 7.30743 6.03453 7.53783C6.27969 7.25775 6.53204 6.9845 6.79592 6.72242C7.79165 5.73312 8.91879 4.87738 10.1464 4.17716C10.5434 3.95072 10.9509 3.74084 11.3685 3.54859C10.6809 4.37589 10.056 5.33063 9.50341 6.38797C9.39901 6.58741 9.29822 6.79118 9.19922 6.99782C8.86803 7.69047 8.56743 8.42273 8.30032 9.19098C8.2276 9.39979 8.15812 9.61111 8.09045 9.82532C7.93169 10.329 7.78697 10.8459 7.65702 11.3759C7.3719 11.4835 7.12063 11.6606 6.92479 11.8871C6.64976 12.2053 6.48236 12.619 6.48236 13.0726C6.48236 13.2933 6.52376 13.5039 6.59576 13.6994C6.70052 13.983 6.87331 14.2332 7.09543 14.4302C6.95179 15.5844 6.87583 16.7778 6.87583 18.0004C6.87583 18.108 6.87979 18.2138 6.88087 18.3211C7.15951 18.6102 7.45614 18.8982 7.76897 19.1833C8.15128 18.7215 8.55412 18.2578 8.9735 17.7937C8.98142 16.7285 9.04874 15.6805 9.17546 14.6613C9.46525 14.5007 9.70537 14.2631 9.8706 13.9766C10.024 13.7102 10.1129 13.4023 10.1129 13.0729C10.1129 12.9747 10.1028 12.8789 10.088 12.7849C10.0344 12.4498 9.8904 12.1452 9.68017 11.8979C9.8688 11.1217 10.0931 10.3707 10.3534 9.65107C10.4253 9.45199 10.5009 9.25615 10.5783 9.06174C10.8667 8.33849 11.19 7.64835 11.5503 7.00034C11.659 6.80486 11.7714 6.61333 11.8862 6.42541C11.8966 6.40885 11.906 6.39085 11.9164 6.37393C13.6214 3.61447 15.7817 2.09452 17.9996 2.09452C20.2038 2.09452 22.3511 3.59683 24.051 6.32461C24.7343 6.01608 25.3934 5.75364 26.0227 5.54015C25.5936 4.81654 25.1292 4.148 24.6306 3.54859C25.0482 3.74084 25.4557 3.95072 25.8528 4.17716C26.3737 4.47417 26.8766 4.7989 27.359 5.15098C27.5681 5.30399 27.7737 5.46167 27.9756 5.62439C27.6333 5.69099 27.2751 5.77848 26.9022 5.88684C26.7135 5.94156 26.5206 6.0024 26.3247 6.06756C25.7023 6.27457 25.0446 6.53377 24.3588 6.84158C24.1803 6.92186 23.9999 7.00502 23.8174 7.09178C22.9145 7.52163 21.9681 8.0314 20.9925 8.61497C20.7823 8.74098 20.5706 8.86986 20.3575 9.00234C19.6454 9.44587 18.9204 9.92684 18.1871 10.4434C17.9888 10.5831 17.7897 10.7253 17.5903 10.8704C16.9941 11.3039 16.3944 11.7589 15.7932 12.2359C15.62 12.1808 15.4354 12.151 15.2442 12.151C15.1304 12.151 15.0196 12.1628 14.9116 12.1826C14.2798 12.2996 13.7643 12.7439 13.5447 13.3332C13.4712 13.5305 13.4291 13.7433 13.4291 13.9661C13.4291 14.0482 13.4367 14.1285 13.4468 14.2073C12.0219 15.472 10.7213 16.7583 9.56605 18.0263C9.36662 18.2448 9.17222 18.4626 8.98178 18.6804C8.71827 18.981 8.46268 19.2805 8.2168 19.5776C8.49004 19.813 8.77299 20.047 9.06782 20.2774C9.27662 20.4409 9.49153 20.6029 9.71041 20.7634C9.76117 20.8005 9.8112 20.8372 9.86232 20.8743C11.2785 19.1668 12.982 17.4186 14.8727 15.7431C14.9926 15.768 15.1171 15.7816 15.2446 15.7816C15.4587 15.7816 15.6639 15.7428 15.8547 15.6744C16.2651 15.5278 16.6071 15.2384 16.8202 14.8647C16.9718 14.5997 17.0596 14.2937 17.0596 13.9661C17.0596 13.9463 17.0575 13.9272 17.0568 13.9078C18.0608 13.1071 19.0396 12.3853 19.9817 11.7424C20.1793 11.6074 20.3752 11.4767 20.5692 11.3485C21.3151 10.8567 22.0358 10.4154 22.7259 10.0226C22.9386 9.90164 23.1492 9.78392 23.3555 9.67195C23.835 9.41239 24.298 9.17694 24.7426 8.9667C24.9262 8.87958 25.1054 8.79858 25.2826 8.71974C25.9907 8.40509 26.6451 8.15632 27.238 7.97128C27.4371 7.90936 27.6297 7.8532 27.8147 7.80568C28.4436 7.64259 28.9879 7.56195 29.4318 7.56195C29.8181 7.56195 30.0031 7.62531 30.0661 7.65339L30.0676 7.65375L30.0679 7.65519C30.1482 7.91836 30.1104 9.03294 28.9077 11.1714C29.0952 11.9324 29.2543 12.7129 29.3778 13.5107C29.4977 13.6094 29.6165 13.7084 29.7331 13.8081C30.6587 12.435 31.3441 11.1519 31.7509 10.0204C31.8819 10.2458 32.0076 10.4741 32.1278 10.7059C33.261 12.8922 33.9054 15.3712 33.9054 17.9993C33.9047 18.1998 33.8968 18.3978 33.8896 18.5955ZM11.2555 27.0283C11.5316 27.6871 11.8405 28.3135 12.1799 28.9035C13.0763 28.4758 14.0159 27.9693 14.9836 27.3908C14.1873 27.0697 13.3985 26.7165 12.6217 26.3331C12.1493 26.5891 11.6929 26.8205 11.2555 27.0283ZM26.2923 15.2632C26.2329 15.2197 26.1743 15.1761 26.1145 15.1329C24.5313 17.0417 22.5887 19.0008 20.4277 20.8516C18.8927 22.1671 17.4038 23.3018 15.9951 24.2634C16.7878 24.5907 17.587 24.8815 18.3855 25.1357C19.5137 24.316 20.6556 23.416 21.7914 22.4421C23.5168 20.9647 25.0759 19.4472 26.4338 17.9554C26.432 17.0417 26.3827 16.1424 26.2923 15.2632ZM29.0981 16.8602C29.0841 16.4988 29.0625 16.1406 29.0355 15.7852C29.0131 15.4897 28.9865 15.1963 28.9552 14.9054C28.9159 14.5378 28.8695 14.1738 28.8166 13.8142C28.7741 13.5248 28.727 13.2382 28.6758 12.9545C28.6121 12.6021 28.5441 12.2525 28.4678 11.909C28.4058 11.6315 28.3403 11.3575 28.2705 11.0864C28.039 10.1875 27.7633 9.32635 27.4486 8.50805C26.8399 8.69453 26.1843 8.9505 25.4985 9.26263C25.7394 9.8876 25.9536 10.5374 26.139 11.2085C26.2153 11.4842 26.2862 11.7636 26.3532 12.0458C26.4655 12.5225 26.5648 13.0085 26.6494 13.5028C26.6955 13.7714 26.7373 14.0421 26.7751 14.3153C26.8039 14.5245 26.8312 14.7344 26.8554 14.9457C26.8856 15.2121 26.9115 15.4803 26.9338 15.7503C26.976 16.2615 27.0044 16.7785 27.0174 17.3009C27.0235 17.5334 27.0274 17.7664 27.0274 18.0007C27.0274 18.0637 27.0253 18.126 27.0249 18.1886C27.0048 21.1202 26.526 23.9164 25.6433 26.3554C26.4496 26.3543 27.211 26.2931 27.9069 26.1776C28.682 23.7234 29.1222 20.9459 29.1222 18.0007C29.1222 17.9042 29.1186 17.8092 29.1175 17.7131C29.1154 17.4269 29.1089 17.1428 29.0981 16.8602ZM26.004 14.3304C26.0688 14.3754 26.1329 14.4201 26.1969 14.4655C26.1825 14.3582 26.1692 14.2502 26.153 14.1436C26.0231 13.2663 25.8467 12.4145 25.6292 11.5937C25.2635 11.3723 24.892 11.1534 24.5075 10.941C24.1335 10.734 23.7562 10.5381 23.3778 10.3473C22.6737 10.7433 21.9562 11.1786 21.2381 11.6437C22.0012 11.99 22.7554 12.3659 23.4941 12.7745C24.3797 13.2634 25.2185 13.7858 26.004 14.3304ZM19.6562 8.7399C17.1025 7.81468 14.5584 7.24551 12.2098 7.0457C11.8405 7.68255 11.5053 8.36009 11.2098 9.07722C13.2016 9.16542 15.336 9.55891 17.4797 10.217C18.2116 9.69103 18.9384 9.19746 19.6562 8.7399Z" fill="#334155"/>
<path d="M44.6821 22.0063L48.5174 0.244817H50.9655L52.1895 13.5737V13.3017L54.5016 0.244817H57.2216L53.3863 22.0063H50.9383L49.4966 10.0375L49.4694 10.3095L47.4022 22.0063H44.6821ZM56.1064 22.0063L59.9417 0.244817H66.1979L65.8171 2.42097H62.281L61.0297 9.49345H64.0218L63.641 11.6696H60.6489L59.3161 19.2861H62.8522L62.3626 22.0063H56.1064ZM63.4506 22.0063L68.1019 11.044L67.5579 0.244817H70.278L70.0332 7.86134H70.3052L72.726 0.244817H75.4461L71.23 10.3095L71.8828 22.0063H69.1627V14.3082H68.8907L66.1707 22.0063H63.4506ZM75.4189 22.0063L78.819 2.69299H76.0989L76.5341 0.244817H84.6943L84.2591 2.69299H81.539L78.139 22.0063H75.4189ZM88.4752 22.0063L90.4881 10.5815C91.8209 2.99221 92.3649 0 96.445 0C100.525 0 99.9811 2.99221 98.6483 10.5815L96.6354 22.0063H93.9154L95.0306 15.7499H92.3105L91.1953 22.0063H88.4752ZM92.6913 13.5737H95.4114L95.9282 10.5815C97.1794 3.50904 97.397 2.17615 96.037 2.17615C94.677 2.17615 94.4594 3.50904 93.2081 10.5815L92.6913 13.5737ZM99.3555 22.0063L103.191 0.244817H107.597C110.399 0.244817 110.834 1.95853 110.317 6.06602L110.181 6.93648C109.229 11.044 108.196 12.7577 105.394 12.7577H103.708L102.076 22.0063H99.3555ZM104.088 10.5815H105.775C106.591 10.5815 106.999 9.90148 107.652 6.93648L107.788 6.06602C108.196 3.10101 108.033 2.42097 107.216 2.42097H105.53L104.088 10.5815ZM109.42 22.0063L113.255 0.244817H115.975L112.14 22.0063H109.42ZM120.844 22.0063L124.679 0.244817H127.399L125.767 9.49345H128.487L130.119 0.244817H132.84L129.004 22.0063H126.284L128.107 11.6696H125.387L123.564 22.0063H120.844ZM131.724 22.0063L133.737 10.5815C135.07 2.99221 135.614 0 139.694 0C143.774 0 143.23 2.99221 141.897 10.5815L139.884 22.0063H137.164L138.28 15.7499H135.56L134.444 22.0063H131.724ZM135.94 13.5737H138.66L139.177 10.5815C140.429 3.50904 140.646 2.17615 139.286 2.17615C137.926 2.17615 137.708 3.50904 136.457 10.5815L135.94 13.5737ZM142.605 22.0063L146.44 0.244817H148.888L150.112 13.5737V13.3017L152.424 0.244817H155.144L151.309 22.0063H148.861L147.419 10.0375L147.392 10.3095L145.325 22.0063H142.605ZM154.029 22.0063L157.864 0.244817H161.944C166.024 0.244817 165.508 3.23702 164.202 10.5543C162.733 18.9869 162.189 22.0063 158.109 22.0063H154.029ZM157.239 19.2861H158.599C160.122 19.2861 160.312 18.1436 161.645 10.5543C162.842 3.75386 163.087 2.42097 161.563 2.42097H160.203L157.239 19.2861ZM164.637 22.0063L168.472 0.244817H171.192L167.847 19.2861H171.383L170.893 22.0063H164.637ZM172.525 22.0063L176.361 0.244817H182.617L182.236 2.42097H178.7L177.449 9.49345H180.441L180.06 11.6696H177.068L175.735 19.2861H179.271L178.781 22.0063H172.525ZM180.686 22.0063L184.521 0.244817H188.927C191.729 0.244817 192.382 1.95853 191.811 5.24996C191.267 8.21497 190.614 9.90148 189.635 10.7175L189.607 10.8807C190.26 11.1256 190.26 12.4041 189.988 15.5867L189.39 22.0063H186.67L187.458 15.5867C187.839 12.3496 187.458 11.6696 186.642 11.6696H185.228L183.406 22.0063H180.686ZM185.609 9.49345H187.295C188.247 9.49345 188.683 8.54139 189.281 5.24996C189.635 3.10101 189.363 2.42097 188.547 2.42097H186.86L185.609 9.49345Z" fill="#334155"/>
<path d="M44.6821 35.9222L45.2582 32.6524C45.6397 30.4804 45.7954 29.624 46.9631 29.624C48.1308 29.624 47.9751 30.4804 47.5937 32.6524L47.0176 35.9222H46.2391L46.5583 34.1316H45.7798L45.4606 35.9222H44.6821ZM45.8888 33.5088H46.6673L46.8152 32.6524C47.1733 30.6283 47.2356 30.2468 46.8463 30.2468C46.4571 30.2468 46.3948 30.6283 46.0367 32.6524L45.8888 33.5088ZM49.5087 35.9222L50.6064 29.6941H51.3849L50.4273 35.1437H51.4394L51.2992 35.9222H49.5087ZM51.7663 35.9222L52.864 29.6941H53.6425L52.5448 35.9222H51.7663ZM53.8215 32.6446C54.203 30.4726 54.3587 29.6162 55.5264 29.6162C56.4139 29.6162 56.5384 30.1067 56.3827 31.2822H55.6587C55.7755 30.4337 55.7288 30.239 55.4174 30.239C54.9815 30.239 54.9114 30.6205 54.5533 32.6446C54.1563 34.8946 54.1018 35.2215 54.5377 35.2215C54.9503 35.2215 55.0282 34.9257 55.3162 33.2752H54.8024L54.9114 32.6524H56.157L56.1025 32.9561C55.721 35.1359 55.5653 36.0001 54.3976 36.0001C53.2299 36.0001 53.3856 35.1359 53.8215 32.6446ZM56.2037 35.9222L57.3013 29.6941H58.0798L57.6127 32.341H58.3912L58.8583 29.6941H59.6368L58.5391 35.9222H57.7606L58.2822 32.9638H57.5037L56.9822 35.9222H56.2037ZM59.7847 35.9222L60.7578 30.3947H59.9793L60.1039 29.6941H62.4393L62.3148 30.3947H61.5363L60.5632 35.9222H59.7847ZM62.198 35.9222L62.7507 29.6941H63.5681L62.9765 34.3807H63.0543L64.3466 29.6941H65.0083L64.6502 34.3807H64.7281L65.7868 29.6941H66.6042L64.9616 35.9222H64.0274L64.1598 32.668L63.1322 35.9222H62.198ZM66.1293 35.9222L67.227 29.6941H69.0175L68.9085 30.3169H67.8965L67.5384 32.341H68.3947L68.2857 32.9638H67.4294L67.048 35.1437H68.06L67.9199 35.9222H66.1293ZM68.4648 35.9222L69.5625 29.6941H70.3409L69.2433 35.9222H68.4648ZM70.52 32.6446C70.9015 30.4726 71.0571 29.6162 72.2249 29.6162C73.1123 29.6162 73.2369 30.1067 73.0812 31.2822H72.3572C72.474 30.4337 72.4273 30.239 72.1159 30.239C71.6799 30.239 71.6099 30.6205 71.2518 32.6446C70.8547 34.8946 70.8002 35.2215 71.2362 35.2215C71.6488 35.2215 71.7266 34.9257 72.0147 33.2752H71.5009L71.6099 32.6524H72.8554L72.801 32.9561C72.4195 35.1359 72.2638 36.0001 71.0961 36.0001C69.9283 36.0001 70.084 35.1359 70.52 32.6446ZM72.9022 35.9222L73.9998 29.6941H74.7783L74.3112 32.341H75.0897L75.5568 29.6941H76.3353L75.2376 35.9222H74.4591L74.9807 32.9638H74.2022L73.6806 35.9222H72.9022ZM76.4832 35.9222L77.4563 30.3947H76.6778L76.8024 29.6941H79.1378L79.0132 30.3947H78.2348L77.2617 35.9222H76.4832ZM80.2199 35.9222L80.796 32.6524C81.1774 30.4804 81.3331 29.624 82.5009 29.624C83.6686 29.624 83.5129 30.4804 83.1314 32.6524L82.5553 35.9222H81.7769L82.096 34.1316H81.3176L80.9984 35.9222H80.2199ZM81.4265 33.5088H82.205L82.3529 32.6524C82.711 30.6283 82.7733 30.2468 82.3841 30.2468C81.9948 30.2468 81.9326 30.6283 81.5745 32.6524L81.4265 33.5088ZM83.3338 35.9222L84.4315 29.6941H85.1321L85.4824 33.5088V33.4309L86.1442 29.6941H86.9226L85.825 35.9222H85.1243L84.7117 32.4967L84.704 32.5746L84.1123 35.9222H83.3338ZM86.6035 35.9222L87.7011 29.6941H88.8688C90.0366 29.6941 89.8887 30.5504 89.515 32.6446C89.0946 35.058 88.9389 35.9222 87.7712 35.9222H86.6035ZM87.5221 35.1437H87.9113C88.3473 35.1437 88.4018 34.8167 88.7832 32.6446C89.1257 30.6984 89.1958 30.3169 88.7599 30.3169H88.3706L87.5221 35.1437ZM91.3522 35.9222L92.4499 29.6941H93.711C94.5129 29.6941 94.6374 30.1845 94.4895 31.3601L94.4506 31.6092C94.1781 32.7848 93.8823 33.2752 93.0804 33.2752H92.5978L92.1307 35.9222H91.3522ZM92.7068 32.6524H93.1894C93.423 32.6524 93.5397 32.4578 93.7266 31.6092L93.7655 31.3601C93.8823 30.5115 93.8356 30.3169 93.602 30.3169H93.1194L92.7068 32.6524ZM94.7308 32.6446C95.1123 30.4726 95.3147 29.6162 96.4824 29.6162C97.6501 29.6162 97.5411 30.4726 97.1597 32.6446C96.7237 35.1359 96.5213 36.0001 95.3536 36.0001C94.1859 36.0001 94.2949 35.1359 94.7308 32.6446ZM95.4937 35.2215C95.9297 35.2215 95.9842 34.8946 96.3812 32.6446C96.7393 30.6205 96.8094 30.239 96.3734 30.239C95.9375 30.239 95.8674 30.6205 95.5093 32.6446C95.1123 34.8946 95.0578 35.2215 95.4937 35.2215ZM97.2843 35.9222L98.3819 29.6941H99.6431C100.445 29.6941 100.632 30.1845 100.468 31.1265C100.313 31.9751 100.126 32.4578 99.8455 32.6914L99.8377 32.7381C100.025 32.8081 100.025 33.174 99.9467 34.0849L99.7754 35.9222H98.9969L99.2227 34.0849C99.3317 33.1585 99.2227 32.9638 98.9891 32.9638H98.5843L98.0627 35.9222H97.2843ZM98.6933 32.341H99.176C99.4484 32.341 99.573 32.0685 99.7443 31.1265C99.8455 30.5115 99.7676 30.3169 99.5341 30.3169H99.0514L98.6933 32.341ZM100.865 35.9222L101.838 30.3947H101.06L101.184 29.6941H103.52L103.395 30.3947H102.617L101.644 35.9222H100.865ZM102.889 35.9222L103.465 32.6524C103.847 30.4804 104.003 29.624 105.17 29.624C106.338 29.624 106.182 30.4804 105.801 32.6524L105.225 35.9222H104.446L104.765 34.1316H103.987L103.668 35.9222H102.889ZM104.096 33.5088H104.874L105.022 32.6524C105.38 30.6283 105.443 30.2468 105.054 30.2468C104.664 30.2468 104.602 30.6283 104.244 32.6524L104.096 33.5088ZM106.003 35.9222L107.101 29.6941H108.284C109.086 29.6941 109.265 30.1923 109.102 31.0876L109.078 31.2511C108.985 31.7883 108.782 32.2087 108.588 32.5123L108.58 32.5434C108.829 32.7848 108.923 33.2597 108.821 34.0849L108.775 34.334C108.518 35.4317 108.144 35.9222 107.342 35.9222H106.003ZM107.412 32.341H107.817C108.035 32.341 108.238 32.0841 108.385 31.2511L108.409 31.0876C108.518 30.4882 108.409 30.3169 108.175 30.3169H107.77L107.412 32.341ZM106.922 35.1437H107.482C107.716 35.1437 107.911 34.9491 108.051 34.334L108.097 34.0849C108.23 33.1585 108.097 32.9638 107.864 32.9638H107.303L106.922 35.1437ZM109.039 35.9222L110.137 29.6941H110.915L109.958 35.1437H110.97L110.83 35.9222H109.039ZM111.297 35.9222L112.395 29.6941H114.185L114.076 30.3169H113.064L112.706 32.341H113.562L113.453 32.9638H112.597L112.216 35.1437H113.228L113.087 35.9222H111.297ZM115.345 35.9222L116.443 29.6941H117.143L117.494 33.5088V33.4309L118.155 29.6941H118.934L117.836 35.9222H117.136L116.723 32.4967L116.715 32.5746L116.124 35.9222H115.345ZM118.615 35.9222L119.712 29.6941H121.503L121.394 30.3169H120.382L120.024 32.341H120.88L120.771 32.9638H119.915L119.533 35.1437H120.545L120.405 35.9222H118.615ZM120.717 35.9222L122.048 32.7848L121.892 29.6941H122.671L122.601 31.8739H122.678L123.371 29.6941H124.15L122.943 32.5746L123.13 35.9222H122.351V33.719H122.274L121.495 35.9222H120.717ZM124.142 35.9222L125.115 30.3947H124.337L124.461 29.6941H126.797L126.672 30.3947H125.894L124.92 35.9222H124.142ZM126.236 35.5252C126.291 35.2293 126.407 35.1281 126.703 35.1281C126.999 35.1281 127.085 35.2293 127.03 35.5252C126.976 35.821 126.859 35.9222 126.563 35.9222C126.267 35.9222 126.182 35.821 126.236 35.5252ZM127.567 34.6766H128.33C128.291 35.1048 128.369 35.2215 128.517 35.2215C128.828 35.2215 128.883 34.8946 129.28 32.6446L129.693 30.3169H129.101L129.21 29.6941H130.58L130.058 32.6446C129.622 35.1359 129.467 36.0001 128.377 36.0001C127.692 36.0001 127.497 35.6264 127.567 34.6766ZM130.44 34.0226H131.226C131.063 35.0269 131.109 35.2215 131.39 35.2215C131.771 35.2215 131.826 34.9023 131.973 34.0538C132.191 32.8081 130.596 33.1429 130.884 31.4847C131.055 30.5115 131.218 29.6162 132.386 29.6162C133.25 29.6162 133.398 30.1067 133.242 31.2822H132.464C132.581 30.4337 132.526 30.239 132.277 30.239C131.896 30.239 131.818 30.6594 131.67 31.4847C131.46 32.6914 133.087 32.2632 132.768 34.0538C132.581 35.1437 132.425 36.0001 131.249 36.0001C130.346 36.0001 130.23 35.4629 130.44 34.0226ZM134.776 35.9222L135.352 32.6524C135.734 30.4804 135.889 29.624 137.057 29.624C138.225 29.624 138.069 30.4804 137.688 32.6524L137.111 35.9222H136.333L136.652 34.1316H135.874L135.554 35.9222H134.776ZM135.983 33.5088H136.761L136.909 32.6524C137.267 30.6283 137.329 30.2468 136.94 30.2468C136.551 30.2468 136.489 30.6283 136.131 32.6524L135.983 33.5088ZM137.89 35.9222L138.988 29.6941H140.249C141.051 29.6941 141.175 30.1845 141.027 31.3601L140.988 31.6092C140.716 32.7848 140.42 33.2752 139.618 33.2752H139.136L138.668 35.9222H137.89ZM139.245 32.6524H139.727C139.961 32.6524 140.077 32.4578 140.264 31.6092L140.303 31.3601C140.42 30.5115 140.373 30.3169 140.14 30.3169H139.657L139.245 32.6524ZM140.77 35.9222L141.868 29.6941H142.646L141.549 35.9222H140.77ZM144.04 35.9222L145.138 29.6941H146.321C147.123 29.6941 147.302 30.1923 147.138 31.0876L147.115 31.2511C147.022 31.7883 146.819 32.2087 146.625 32.5123L146.617 32.5434C146.866 32.7848 146.959 33.2597 146.858 34.0849L146.811 34.334C146.554 35.4317 146.181 35.9222 145.379 35.9222H144.04ZM145.449 32.341H145.854C146.072 32.341 146.274 32.0841 146.422 31.2511L146.445 31.0876C146.554 30.4882 146.445 30.3169 146.212 30.3169H145.807L145.449 32.341ZM144.959 35.1437H145.519C145.753 35.1437 145.947 34.9491 146.087 34.334L146.134 34.0849C146.266 33.1585 146.134 32.9638 145.901 32.9638H145.34L144.959 35.1437ZM147.613 32.6446L148.135 29.6941H148.913L148.392 32.6446C147.995 34.8946 147.94 35.2215 148.329 35.2215C148.719 35.2215 148.773 34.8946 149.17 32.6446L149.692 29.6941H150.47L149.949 32.6446C149.513 35.1359 149.357 36.0001 148.189 36.0001C147.022 36.0001 147.177 35.1359 147.613 32.6446ZM150.112 35.9222L151.21 29.6941H151.988L150.891 35.9222H150.112ZM151.669 35.9222L152.767 29.6941H153.545L152.588 35.1437H153.6L153.46 35.9222H151.669ZM153.927 35.9222L155.024 29.6941H156.192C157.36 29.6941 157.212 30.5504 156.838 32.6446C156.418 35.058 156.262 35.9222 155.094 35.9222H153.927ZM154.845 35.1437H155.235C155.671 35.1437 155.725 34.8167 156.106 32.6446C156.449 30.6984 156.519 30.3169 156.083 30.3169H155.694L154.845 35.1437ZM156.963 35.9222L158.06 29.6941H159.851L159.742 30.3169H158.73L158.372 32.341H159.228L159.119 32.9638H158.263L157.881 35.1437H158.893L158.753 35.9222H156.963ZM159.298 35.9222L160.396 29.6941H161.657C162.459 29.6941 162.646 30.1845 162.482 31.1265C162.327 31.9751 162.14 32.4578 161.859 32.6914L161.852 32.7381C162.039 32.8081 162.039 33.174 161.961 34.0849L161.789 35.9222H161.011L161.237 34.0849C161.346 33.1585 161.237 32.9638 161.003 32.9638H160.598L160.077 35.9222H159.298ZM160.707 32.341H161.19C161.462 32.341 161.587 32.0685 161.758 31.1265C161.859 30.5115 161.782 30.3169 161.548 30.3169H161.065L160.707 32.341Z" fill="#334155"/>
</svg>
