<svg width="64" height="64" viewBox="0 0 64 64" fill="none" xmlns="http://www.w3.org/2000/svg">
<circle cx="32" cy="32" r="32" fill="#334155"/>
<path d="M46.7772 21.729C46.4345 21.2365 46.067 20.762 45.6778 20.3073C45.672 20.3008 45.6684 20.2933 45.6627 20.2864C45.6555 20.2782 45.6468 20.2713 45.6396 20.263C45.2501 19.8109 44.8387 19.3785 44.4067 18.9674C42.0599 16.7321 39.1134 15.1247 35.8302 14.4126C34.5955 14.1447 33.315 14 31.9996 14C30.6845 14 29.404 14.1447 28.1689 14.4126C23.2352 15.4825 19.0561 18.5735 16.5426 22.7773C15.7654 24.077 15.1502 25.4832 14.7185 26.9682C14.2538 28.5659 14 30.2532 14 32.0004C14 35.8053 15.1844 39.333 17.2 42.2404C17.5027 42.6771 17.8224 43.1012 18.1615 43.5084C18.2087 43.5814 18.2591 43.6531 18.3159 43.7197C18.3797 43.7942 18.4499 43.8626 18.524 43.9267C18.8682 44.3151 19.2289 44.6874 19.6047 45.0445C21.9493 47.2733 24.8919 48.8768 28.1693 49.5874C29.404 49.8553 30.6849 50 31.9999 50C33.315 50 34.5958 49.8553 35.8306 49.5874C40.7823 48.5139 44.9729 45.4038 47.4835 41.1766C48.2319 39.9169 48.8295 38.5586 49.2547 37.1251C49.7367 35.5 49.9995 33.781 49.9995 32C49.9991 28.1814 48.8065 24.6425 46.7772 21.729ZM43.2029 43.2783C42.2068 44.2676 41.0796 45.1237 39.8521 45.8236C39.455 46.05 39.0478 46.2599 38.6299 46.4521C39.3164 45.6259 39.941 44.6726 40.4928 43.6167C40.2059 43.629 39.9154 43.638 39.6166 43.638C39.1227 43.638 38.6187 43.6167 38.109 43.5822C38.1 43.5969 38.0913 43.6128 38.0823 43.6272C36.3778 46.3862 34.2171 47.9062 31.9996 47.9062C29.7943 47.9062 27.6458 46.4021 25.9456 43.6722C25.9362 43.6567 25.9262 43.6426 25.9164 43.6272C25.821 43.4727 25.7292 43.3139 25.6382 43.1545C25.3005 42.5619 24.9927 41.9344 24.7159 41.2763C24.641 41.0981 24.569 40.9167 24.4984 40.7341C24.2612 40.1178 24.0499 39.4777 23.8663 38.8164C23.3537 38.5014 22.8576 38.1766 22.3795 37.8433C22.3169 37.938 22.2524 38.033 22.192 38.1266C22.0188 38.3959 21.864 38.6501 21.7229 38.8931C21.9554 39.7992 22.2326 40.6672 22.5494 41.4912C22.6186 41.6716 22.6884 41.8509 22.7615 42.0266C23.039 42.6947 23.345 43.3294 23.6737 43.9303C23.772 44.1096 23.8728 44.2849 23.9754 44.4581C24.4052 45.1827 24.8699 45.852 25.3692 46.4525C24.9517 46.2602 24.5441 46.0504 24.1471 45.8239C23.6258 45.5266 23.1225 45.2015 22.6398 44.8494C22.4303 44.6964 22.2251 44.5391 22.0238 44.3763C22.3662 44.3086 22.724 44.2212 23.097 44.1124C22.7661 43.5001 22.4602 42.8611 22.1851 42.194C21.5469 42.3603 20.9954 42.4424 20.5457 42.4424C20.2192 42.4424 20.0378 42.3977 19.9514 42.3668C19.9352 42.361 19.9211 42.3556 19.9114 42.3513C19.9082 42.3401 19.9053 42.3246 19.9028 42.3106C19.8369 41.9891 19.9183 40.8749 21.0875 38.8059C21.2182 38.5745 21.3672 38.3271 21.5267 38.0715C21.5818 37.983 21.634 37.8973 21.6927 37.8058C21.7578 37.7043 21.8277 37.6017 21.8953 37.4991C21.7035 37.3591 21.5137 37.2183 21.328 37.0757C21.0889 36.8925 20.8557 36.7078 20.6278 36.5206C20.4982 36.4144 20.37 36.3075 20.2444 36.2002C19.3264 37.5614 18.6457 38.8347 18.2378 39.959C18.1071 39.734 17.9819 39.5054 17.862 39.2736C16.7352 37.0919 16.0944 34.6201 16.0944 32.0004C16.0944 31.8168 16.102 31.6353 16.1085 31.4532C16.1211 31.078 16.1434 30.7058 16.1819 30.3378C16.985 31.9921 18.3271 33.6982 20.131 35.3189C20.2541 35.4298 20.3787 35.54 20.5061 35.6501C20.531 35.6714 20.5544 35.693 20.5792 35.7146C20.7768 35.8834 20.9792 36.0512 21.1869 36.2171C21.5206 36.485 21.8701 36.7489 22.2294 37.0091C22.3882 37.1247 22.5491 37.2395 22.7129 37.3537C23.0174 37.5654 23.331 37.7742 23.6517 37.9797C23.8886 38.132 24.1305 38.2821 24.3764 38.4305C24.7313 38.645 25.0921 38.8567 25.4646 39.0626C25.8401 39.2703 26.2185 39.4673 26.5983 39.6588C26.8153 39.7686 27.0324 39.8784 27.2506 39.9828C28.0346 40.3579 28.8255 40.6956 29.6179 41.0031C29.8515 41.0938 30.0855 41.1816 30.3195 41.2666C31.1889 41.5816 32.0568 41.8559 32.9172 42.0878C32.9935 42.3581 33.1307 42.6022 33.3132 42.8053C33.6454 43.1753 34.126 43.4101 34.6628 43.4101C34.9277 43.4101 35.179 43.3517 35.4054 43.2499C35.6592 43.1357 35.8824 42.9662 36.0581 42.7552C36.6435 42.8452 37.2194 42.914 37.7846 42.9619C38.0067 42.9806 38.2267 42.995 38.4449 43.0069C38.8416 43.0288 39.2336 43.0439 39.6166 43.0439C40.0187 43.0439 40.4122 43.031 40.797 43.0065C41.0296 42.9917 41.2589 42.9727 41.4846 42.9489C42.3731 42.856 43.2043 42.6922 43.966 42.4596C43.7209 42.7412 43.4675 43.0155 43.2029 43.2783ZM47.8896 32.5955C47.8759 32.9699 47.8511 33.3414 47.8115 33.7093C47.6797 33.4346 47.5336 33.1596 47.3719 32.8827C47.4454 32.6855 47.4875 32.4731 47.4875 32.2506C47.4875 32.1296 47.4749 32.0115 47.4522 31.897C47.346 31.3603 47.004 30.9085 46.5378 30.655C46.2804 30.515 45.9856 30.4358 45.672 30.4358C45.6432 30.4358 45.6152 30.4387 45.5864 30.4401C45.0665 29.85 44.4844 29.265 43.8451 28.6901C43.731 28.5875 43.615 28.4853 43.497 28.383C43.5251 28.6116 43.5485 28.842 43.5711 29.0728C43.6492 29.8652 43.6946 30.6705 43.7086 31.4841C43.785 31.5662 43.8598 31.6483 43.9336 31.7304C43.8843 31.8956 43.857 32.0698 43.857 32.2513C43.857 32.3604 43.8681 32.4666 43.8865 32.5699C43.9866 33.1347 44.3473 33.6089 44.8405 33.8638C45.082 33.9887 45.3549 34.061 45.6443 34.0654C46.0947 34.8653 46.3931 35.649 46.513 36.3932C46.6879 37.4782 46.4518 38.3527 45.7905 39.0687C45.0781 39.8413 43.884 40.3993 42.3688 40.6985C42.1513 40.7417 41.9274 40.7799 41.6974 40.8119C41.049 40.9019 40.3532 40.9501 39.6166 40.9501C39.5511 40.9501 39.4838 40.9465 39.4176 40.9458C39.2084 40.9433 38.9985 40.9397 38.7858 40.9307C37.952 40.8943 37.0924 40.8033 36.2179 40.6636C36.0038 40.3072 35.6715 40.0307 35.2744 39.8885C35.1214 39.8338 34.9591 39.7988 34.7899 39.787C34.7477 39.7841 34.7056 39.7805 34.6624 39.7805C34.2744 39.7805 33.9154 39.9032 33.6202 40.111C33.2459 40.0123 32.8707 39.9058 32.4949 39.7902C32.2591 39.7178 32.0233 39.6415 31.7875 39.5627C30.9905 39.2966 30.1949 38.9942 29.4066 38.6573C29.1823 38.5619 28.9594 38.4646 28.737 38.3635C27.9723 38.0161 27.216 37.6388 26.4762 37.2295C25.5924 36.7417 24.7555 36.2207 23.9714 35.6775C23.916 35.639 23.8598 35.6004 23.8047 35.5619C23.6974 35.4863 23.5912 35.4104 23.4865 35.334C23.3713 35.2509 23.2583 35.1666 23.1456 35.0824C22.6895 34.74 22.2546 34.3904 21.8442 34.0358C21.6923 33.9048 21.544 33.7727 21.3985 33.6398C21.229 33.485 21.0623 33.3302 20.9021 33.174C20.6901 32.9677 20.486 32.7603 20.2905 32.5519C18.7209 30.8786 17.7112 29.1628 17.461 27.6173C17.2849 26.5308 17.5204 25.6545 18.1799 24.9392C18.8977 24.1619 20.1015 23.6018 21.6293 23.3037C21.8885 22.5239 22.1833 21.7722 22.5124 21.0536C21.6253 21.1454 20.7959 21.3074 20.0345 21.5378C20.2797 21.2577 20.532 20.9845 20.7959 20.7224C21.7917 19.7331 22.9188 18.8774 24.1464 18.1772C24.5434 17.9507 24.9509 17.7408 25.3685 17.5486C24.6809 18.3759 24.056 19.3306 23.5034 20.388C23.399 20.5874 23.2982 20.7912 23.1992 20.9978C22.868 21.6905 22.5674 22.4227 22.3003 23.191C22.2276 23.3998 22.1581 23.6111 22.0904 23.8253C21.9317 24.329 21.787 24.8459 21.657 25.3759C21.3719 25.4835 21.1206 25.6606 20.9248 25.8871C20.6498 26.2053 20.4824 26.619 20.4824 27.0726C20.4824 27.2933 20.5238 27.5039 20.5958 27.6994C20.7005 27.983 20.8733 28.2332 21.0954 28.4302C20.9518 29.5844 20.8758 30.7778 20.8758 32.0004C20.8758 32.108 20.8798 32.2138 20.8809 32.3211C21.1595 32.6102 21.4561 32.8982 21.769 33.1833C22.1513 32.7215 22.5541 32.2578 22.9735 31.7937C22.9814 30.7285 23.0487 29.6805 23.1755 28.6613C23.4653 28.5007 23.7054 28.2631 23.8706 27.9766C24.024 27.7102 24.1129 27.4023 24.1129 27.0729C24.1129 26.9747 24.1028 26.8789 24.088 26.7849C24.0344 26.4498 23.8904 26.1452 23.6802 25.8979C23.8688 25.1217 24.0931 24.3707 24.3534 23.6511C24.4253 23.452 24.5009 23.2561 24.5783 23.0617C24.8667 22.3385 25.19 21.6484 25.5503 21.0003C25.659 20.8049 25.7714 20.6133 25.8862 20.4254C25.8966 20.4088 25.906 20.3908 25.9164 20.3739C27.6214 17.6145 29.7817 16.0945 31.9996 16.0945C34.2038 16.0945 36.3511 17.5968 38.051 20.3246C38.7343 20.0161 39.3934 19.7536 40.0227 19.5402C39.5936 18.8165 39.1292 18.148 38.6306 17.5486C39.0482 17.7408 39.4557 17.9507 39.8528 18.1772C40.3737 18.4742 40.8766 18.7989 41.359 19.151C41.5681 19.304 41.7737 19.4617 41.9756 19.6244C41.6333 19.691 41.2751 19.7785 40.9022 19.8868C40.7135 19.9416 40.5206 20.0024 40.3247 20.0676C39.7023 20.2746 39.0446 20.5338 38.3588 20.8416C38.1803 20.9219 37.9999 21.005 37.8174 21.0918C36.9145 21.5216 35.9681 22.0314 34.9925 22.615C34.7823 22.741 34.5706 22.8699 34.3575 23.0023C33.6454 23.4459 32.9204 23.9268 32.1871 24.4434C31.9888 24.5831 31.7897 24.7253 31.5903 24.8704C30.9941 25.3039 30.3944 25.7589 29.7932 26.2359C29.62 26.1808 29.4354 26.151 29.2442 26.151C29.1304 26.151 29.0196 26.1628 28.9116 26.1826C28.2798 26.2996 27.7643 26.7439 27.5447 27.3332C27.4712 27.5305 27.4291 27.7433 27.4291 27.9661C27.4291 28.0482 27.4367 28.1285 27.4468 28.2073C26.0219 29.472 24.7213 30.7583 23.5661 32.0263C23.3666 32.2448 23.1722 32.4626 22.9818 32.6804C22.7183 32.981 22.4627 33.2805 22.2168 33.5776C22.49 33.813 22.773 34.047 23.0678 34.2774C23.2766 34.4409 23.4915 34.6029 23.7104 34.7634C23.7612 34.8005 23.8112 34.8372 23.8623 34.8743C25.2785 33.1668 26.982 31.4186 28.8727 29.7431C28.9926 29.768 29.1171 29.7816 29.2446 29.7816C29.4587 29.7816 29.6639 29.7428 29.8547 29.6744C30.2651 29.5278 30.6071 29.2384 30.8202 28.8647C30.9718 28.5997 31.0596 28.2937 31.0596 27.9661C31.0596 27.9463 31.0575 27.9272 31.0568 27.9078C32.0608 27.1071 33.0396 26.3853 33.9817 25.7424C34.1793 25.6074 34.3752 25.4767 34.5692 25.3485C35.3151 24.8567 36.0358 24.4154 36.7259 24.0226C36.9386 23.9016 37.1492 23.7839 37.3555 23.672C37.835 23.4124 38.298 23.1769 38.7426 22.9667C38.9262 22.8796 39.1054 22.7986 39.2826 22.7197C39.9907 22.4051 40.6451 22.1563 41.238 21.9713C41.4371 21.9094 41.6297 21.8532 41.8147 21.8057C42.4436 21.6426 42.9879 21.562 43.4318 21.562C43.8181 21.562 44.0031 21.6253 44.0661 21.6534L44.0676 21.6538L44.0679 21.6552C44.1482 21.9184 44.1104 23.0329 42.9077 25.1714C43.0952 25.9324 43.2543 26.7129 43.3778 27.5107C43.4977 27.6094 43.6165 27.7084 43.7331 27.8081C44.6587 26.435 45.3441 25.1519 45.7509 24.0204C45.8819 24.2458 46.0076 24.4741 46.1278 24.7059C47.261 26.8922 47.9054 29.3712 47.9054 31.9993C47.9047 32.1998 47.8968 32.3978 47.8896 32.5955ZM25.2555 41.0283C25.5316 41.6871 25.8405 42.3135 26.1799 42.9035C27.0763 42.4758 28.0159 41.9693 28.9836 41.3908C28.1873 41.0697 27.3985 40.7165 26.6217 40.3331C26.1493 40.5891 25.6929 40.8205 25.2555 41.0283ZM40.2923 29.2632C40.2329 29.2197 40.1743 29.1761 40.1145 29.1329C38.5313 31.0417 36.5887 33.0008 34.4277 34.8516C32.8927 36.1671 31.4038 37.3018 29.9951 38.2634C30.7878 38.5907 31.587 38.8815 32.3855 39.1357C33.5137 38.316 34.6556 37.416 35.7914 36.4421C37.5168 34.9647 39.0759 33.4472 40.4338 31.9554C40.432 31.0417 40.3827 30.1424 40.2923 29.2632ZM43.0981 30.8602C43.0841 30.4988 43.0625 30.1406 43.0355 29.7852C43.0131 29.4897 42.9865 29.1963 42.9552 28.9054C42.9159 28.5378 42.8695 28.1738 42.8166 27.8142C42.7741 27.5248 42.727 27.2382 42.6758 26.9545C42.6121 26.6021 42.5441 26.2525 42.4678 25.909C42.4058 25.6315 42.3403 25.3575 42.2705 25.0864C42.039 24.1875 41.7633 23.3263 41.4486 22.5081C40.8399 22.6945 40.1843 22.9505 39.4985 23.2626C39.7394 23.8876 39.9536 24.5374 40.139 25.2085C40.2153 25.4842 40.2862 25.7636 40.3532 26.0458C40.4655 26.5225 40.5648 27.0085 40.6494 27.5028C40.6955 27.7714 40.7373 28.0421 40.7751 28.3153C40.8039 28.5245 40.8312 28.7344 40.8554 28.9457C40.8856 29.2121 40.9115 29.4803 40.9338 29.7503C40.976 30.2615 41.0044 30.7785 41.0174 31.3009C41.0235 31.5334 41.0274 31.7664 41.0274 32.0007C41.0274 32.0637 41.0253 32.126 41.0249 32.1886C41.0048 35.1202 40.526 37.9164 39.6433 40.3554C40.4496 40.3543 41.211 40.2931 41.9069 40.1776C42.682 37.7234 43.1222 34.9459 43.1222 32.0007C43.1222 31.9042 43.1186 31.8092 43.1175 31.7131C43.1154 31.4269 43.1089 31.1428 43.0981 30.8602ZM40.004 28.3304C40.0688 28.3754 40.1329 28.4201 40.1969 28.4655C40.1825 28.3582 40.1692 28.2502 40.153 28.1436C40.0231 27.2663 39.8467 26.4145 39.6292 25.5937C39.2635 25.3723 38.892 25.1534 38.5075 24.941C38.1335 24.734 37.7562 24.5381 37.3778 24.3473C36.6737 24.7433 35.9562 25.1786 35.2381 25.6437C36.0012 25.99 36.7554 26.3659 37.4941 26.7745C38.3797 27.2634 39.2185 27.7858 40.004 28.3304ZM33.6562 22.7399C31.1025 21.8147 28.5584 21.2455 26.2098 21.0457C25.8405 21.6826 25.5053 22.3601 25.2098 23.0772C27.2016 23.1654 29.336 23.5589 31.4797 24.217C32.2116 23.691 32.9384 23.1975 33.6562 22.7399Z" fill="#E0F2FE"/>
</svg>
