<?xml version="1.0" standalone="no"?>
<!DOCTYPE svg PUBLIC "-//W3C//DTD SVG 20010904//EN"
 "http://www.w3.org/TR/2001/REC-SVG-20010904/DTD/svg10.dtd">
<svg version="1.0" xmlns="http://www.w3.org/2000/svg"
 width="700.000000pt" height="700.000000pt" viewBox="0 0 700.000000 700.000000"
 preserveAspectRatio="xMidYMid meet">
<metadata>
Created by potrace 1.14, written by Peter Selinger 2001-2017
</metadata>
<g transform="translate(0.000000,700.000000) scale(0.100000,-0.100000)"
fill="#000000" stroke="none">
<path d="M3240 6989 c-1235 -93 -2323 -827 -2876 -1939 -483 -972 -483 -2128
0 -3100 182 -365 375 -631 675 -930 395 -394 842 -670 1361 -840 1138 -375
2364 -151 3305 603 129 104 409 384 511 512 436 546 685 1148 766 1850 7 61
12 220 12 355 0 135 -5 295 -12 355 -80 701 -326 1296 -761 1845 -97 123 -399
425 -521 522 -710 564 -1577 834 -2460 767z m489 -1535 c672 -78 1251 -493
1547 -1109 499 -1037 -7 -2284 -1091 -2690 -415 -155 -878 -164 -1300 -24
-1034 343 -1595 1456 -1254 2484 98 297 258 555 478 776 169 168 327 280 546
385 339 162 699 222 1074 178z"/>
<path d="M3385 5225 c-209 -46 -409 -217 -570 -490 -82 -139 -154 -310 -199
-475 l-25 -91 22 -37 c15 -26 22 -53 21 -92 0 -63 -20 -108 -69 -154 l-34 -31
-11 -168 -10 -168 -65 -75 -65 -74 -51 47 -51 48 7 145 c4 80 10 174 14 210 6
61 4 68 -24 108 -26 38 -30 52 -30 111 0 58 4 74 28 108 15 22 43 49 62 59 28
15 36 27 46 68 25 108 103 317 164 441 53 109 119 218 201 333 17 22 16 22
-10 12 -48 -18 -188 -103 -270 -163 -107 -80 -281 -251 -246 -243 29 7 160 32
208 40 19 3 32 2 30 -2 -2 -5 -23 -60 -48 -124 l-44 -116 -81 -21 c-163 -44
-296 -132 -345 -230 -172 -343 319 -955 1069 -1330 198 -99 389 -176 571 -229
94 -28 96 -28 135 -10 75 33 155 18 215 -42 35 -35 44 -39 121 -49 452 -59
840 27 981 219 78 106 77 260 -4 440 -28 64 -33 69 -72 79 -99 25 -156 95
-156 194 0 31 -4 65 -9 75 -10 17 -34 332 -27 339 2 3 55 -45 117 -106 80 -79
119 -111 136 -111 32 0 92 -32 125 -67 37 -39 49 -77 47 -147 -1 -45 3 -72 18
-101 l21 -40 7 80 c26 273 -61 676 -198 918 l-33 57 -36 -84 c-31 -74 -133
-257 -173 -310 -25 -33 -50 2 -64 88 -7 40 -18 96 -26 125 l-13 52 48 102 c53
111 83 211 78 261 -3 30 -5 31 -53 34 -197 13 -588 -151 -985 -413 -149 -98
-370 -262 -375 -278 -2 -7 -9 -32 -16 -57 -21 -85 -130 -162 -206 -147 -20 4
-47 -16 -147 -109 -116 -106 -293 -291 -381 -396 -21 -27 -42 -48 -46 -48 -5
0 -95 67 -162 121 -19 16 -16 20 85 135 58 65 186 198 285 294 174 170 180
177 185 222 7 59 40 112 91 146 33 22 53 27 107 28 l66 2 125 93 c390 294 801
517 1104 600 44 11 82 23 84 25 6 5 -15 21 -114 87 -94 63 -215 131 -221 124
-2 -2 11 -24 29 -48 19 -24 50 -69 70 -100 l35 -55 -92 -37 c-51 -20 -100 -39
-108 -42 -10 -4 -33 19 -76 77 -211 290 -465 418 -717 363z m-299 -556 c134
-20 383 -82 513 -126 l83 -29 -119 -81 -119 -81 -151 39 c-159 40 -393 79
-480 79 -29 0 -53 4 -53 10 0 5 24 57 52 115 l53 105 50 -6 c27 -3 105 -14
171 -25z m1493 -262 c171 -530 182 -1190 28 -1722 l-23 -80 -44 -7 c-65 -9
-200 -9 -200 0 0 5 11 40 24 78 165 487 160 1180 -14 1690 -16 48 -28 89 -26
92 10 10 201 80 208 76 4 -3 25 -60 47 -127z m-308 -169 l67 -39 21 -102 c27
-128 40 -207 33 -207 -3 0 -19 10 -36 23 -60 45 -220 139 -355 209 -75 39
-136 74 -135 77 0 3 50 36 110 72 l109 67 60 -30 c33 -17 90 -48 126 -70z
m141 -484 c3 -27 7 -96 7 -152 l1 -104 -127 -130 c-197 -201 -454 -427 -675
-592 l-77 -57 -132 47 c-129 46 -132 48 -109 63 72 48 311 231 415 318 220
185 477 436 625 612 24 28 48 50 54 48 6 -2 14 -26 18 -53z"/>
<path d="M1766 3623 c-15 -109 -2 -306 30 -468 30 -149 107 -361 172 -473 l25
-44 52 109 c28 59 77 150 109 201 l58 93 23 -18 c123 -94 154 -119 155 -125 0
-4 -16 -33 -36 -64 -97 -151 -178 -355 -172 -430 l3 -39 75 0 c41 0 96 4 121
9 l45 8 47 -97 c26 -53 47 -100 47 -105 0 -4 -26 -14 -57 -22 l-56 -14 89 -60
c110 -75 201 -129 238 -144 29 -11 29 -10 12 12 -143 199 -240 389 -315 613
-28 83 -51 159 -51 169 0 14 47 103 65 124 2 2 39 -21 84 -50 l80 -53 37 -110
c93 -280 213 -487 377 -653 213 -217 453 -282 691 -186 131 52 291 191 396
343 l55 80 133 1 133 0 -12 -22 c-26 -50 -110 -180 -143 -224 -20 -26 -34 -49
-32 -51 6 -6 125 60 216 120 100 66 190 141 275 228 64 65 67 71 40 64 -239
-57 -465 -67 -733 -35 l-89 11 -50 -31 c-60 -37 -116 -47 -168 -30 -45 15
-108 70 -124 108 -11 24 -31 33 -204 90 -316 104 -583 233 -862 417 -188 125
-286 205 -436 354 -134 134 -209 228 -288 359 l-48 81 -7 -46z m1272 -1092
l133 -59 -78 -45 c-80 -46 -218 -117 -228 -117 -2 0 -27 45 -55 99 l-49 100
72 40 c39 21 72 40 72 40 0 1 60 -25 133 -58z"/>
</g>
</svg>
