<svg width="36" height="36" viewBox="0 0 36 36" fill="none" xmlns="http://www.w3.org/2000/svg">
<path d="M32.7772 7.729C32.4345 7.23651 32.067 6.76202 31.6778 6.30733C31.672 6.30085 31.6684 6.29329 31.6627 6.28645C31.6555 6.27817 31.6468 6.27133 31.6396 6.26305C31.2501 5.81088 30.8387 5.37851 30.4067 4.96738C28.0599 2.73209 25.1134 1.12466 21.8302 0.412568C20.5955 0.144723 19.315 0 17.9996 0C16.6845 0 15.404 0.144723 14.1689 0.412568C9.23522 1.48251 5.05608 4.57353 2.54262 8.77734C1.7654 10.077 1.15017 11.4832 0.718543 12.9682C0.253794 14.5659 0 16.2532 0 18.0004C0 21.8053 1.18437 25.333 3.19996 28.2404C3.50272 28.6771 3.82239 29.1012 4.1615 29.5084C4.20866 29.5814 4.25906 29.6531 4.31594 29.7197C4.37966 29.7942 4.44985 29.8626 4.52401 29.9267C4.86816 30.3151 5.22887 30.6874 5.60471 31.0445C7.94933 33.2733 10.8919 34.8768 14.1693 35.5874C15.404 35.8553 16.6849 36 17.9999 36C19.315 36 20.5958 35.8553 21.8306 35.5874C26.7823 34.5139 30.9729 31.4038 33.4835 27.1766C34.2319 25.9169 34.8295 24.5586 35.2547 23.1251C35.7367 21.5 35.9995 19.781 35.9995 18C35.9991 14.1814 34.8065 10.6425 32.7772 7.729ZM29.2029 29.2783C28.2068 30.2676 27.0796 31.1237 25.8521 31.8236C25.455 32.05 25.0478 32.2599 24.6299 32.4521C25.3164 31.6259 25.941 30.6726 26.4928 29.6167C26.2059 29.629 25.9154 29.638 25.6166 29.638C25.1227 29.638 24.6187 29.6167 24.109 29.5822C24.1 29.5969 24.0913 29.6128 24.0823 29.6272C22.3778 32.3862 20.2171 33.9062 17.9996 33.9062C15.7943 33.9062 13.6458 32.4021 11.9456 29.6722C11.9362 29.6567 11.9262 29.6426 11.9164 29.6272C11.821 29.4727 11.7292 29.3139 11.6382 29.1545C11.3005 28.5619 10.9927 27.9344 10.7159 27.2763C10.641 27.0981 10.569 26.9167 10.4984 26.7341C10.2612 26.1178 10.0499 25.4777 9.86628 24.8164C9.35366 24.5014 8.85759 24.1766 8.37952 23.8433C8.31688 23.938 8.25244 24.033 8.19196 24.1266C8.01881 24.3959 7.86401 24.6501 7.72289 24.8931C7.95545 25.7992 8.23264 26.6672 8.54943 27.4912C8.61855 27.6716 8.68839 27.8509 8.76147 28.0266C9.03902 28.6947 9.34502 29.3294 9.67369 29.9303C9.77197 30.1096 9.87276 30.2849 9.97536 30.4581C10.4052 31.1827 10.8699 31.852 11.3692 32.4525C10.9517 32.2602 10.5441 32.0504 10.1471 31.8239C9.62581 31.5266 9.12254 31.2015 8.63979 30.8494C8.43028 30.6964 8.22508 30.5391 8.02385 30.3763C8.3662 30.3086 8.72403 30.2212 9.09698 30.1124C8.76615 29.5001 8.46016 28.8611 8.18512 28.194C7.54686 28.3603 6.99535 28.4424 6.54572 28.4424C6.21921 28.4424 6.03778 28.3977 5.95138 28.3668C5.93518 28.361 5.92114 28.3556 5.91142 28.3513C5.90818 28.3401 5.9053 28.3246 5.90278 28.3106C5.8369 27.9891 5.91826 26.8749 7.08751 24.8059C7.21819 24.5745 7.36722 24.3271 7.5267 24.0715C7.58178 23.983 7.63398 23.8973 7.69266 23.8058C7.75781 23.7043 7.82765 23.6017 7.89533 23.4991C7.70346 23.3591 7.51374 23.2183 7.32798 23.0757C7.08895 22.8925 6.85568 22.7078 6.6278 22.5206C6.4982 22.4144 6.37005 22.3075 6.24441 22.2002C5.32643 23.5614 4.64569 24.8347 4.23782 25.959C4.10714 25.734 3.98186 25.5054 3.86199 25.2736C2.73521 23.0919 2.09443 20.6201 2.09443 18.0004C2.09443 17.8168 2.10199 17.6353 2.10847 17.4532C2.12107 17.078 2.14339 16.7058 2.18191 16.3378C2.98505 17.9921 4.3271 19.6982 6.13101 21.3189C6.25413 21.4298 6.37869 21.54 6.50612 21.6501C6.53096 21.6714 6.55436 21.693 6.5792 21.7146C6.77684 21.8834 6.97915 22.0512 7.18687 22.2171C7.52058 22.485 7.87013 22.7489 8.2294 23.0091C8.38816 23.1247 8.54907 23.2395 8.71287 23.3537C9.01742 23.5654 9.33098 23.7742 9.65173 23.9797C9.8886 24.132 10.1305 24.2821 10.3764 24.4305C10.7313 24.645 11.0921 24.8567 11.4646 25.0626C11.8401 25.2703 12.2185 25.4673 12.5983 25.6588C12.8153 25.7686 13.0324 25.8784 13.2506 25.9828C14.0346 26.3579 14.8255 26.6956 15.6179 27.0031C15.8515 27.0938 16.0855 27.1816 16.3195 27.2666C17.1889 27.5816 18.0568 27.8559 18.9172 28.0878C18.9935 28.3581 19.1307 28.6022 19.3132 28.8053C19.6454 29.1753 20.126 29.4101 20.6628 29.4101C20.9277 29.4101 21.179 29.3517 21.4054 29.2499C21.6592 29.1357 21.8824 28.9662 22.0581 28.7552C22.6435 28.8452 23.2194 28.914 23.7846 28.9619C24.0067 28.9806 24.2267 28.995 24.4449 29.0069C24.8416 29.0288 25.2336 29.0439 25.6166 29.0439C26.0187 29.0439 26.4122 29.031 26.797 29.0065C27.0296 28.9917 27.2589 28.9727 27.4846 28.9489C28.3731 28.856 29.2043 28.6922 29.966 28.4596C29.7209 28.7412 29.4675 29.0155 29.2029 29.2783ZM33.8896 18.5955C33.8759 18.9699 33.8511 19.3414 33.8115 19.7093C33.6797 19.4346 33.5336 19.1596 33.3719 18.8827C33.4454 18.6855 33.4875 18.4731 33.4875 18.2506C33.4875 18.1296 33.4749 18.0115 33.4522 17.897C33.346 17.3603 33.004 16.9085 32.5378 16.655C32.2804 16.515 31.9856 16.4358 31.672 16.4358C31.6432 16.4358 31.6152 16.4387 31.5864 16.4401C31.0665 15.85 30.4844 15.265 29.8451 14.6901C29.731 14.5875 29.615 14.4853 29.497 14.383C29.5251 14.6116 29.5485 14.842 29.5711 15.0728C29.6492 15.8652 29.6946 16.6705 29.7086 17.4841C29.785 17.5662 29.8598 17.6483 29.9336 17.7304C29.8843 17.8956 29.857 18.0698 29.857 18.2513C29.857 18.3604 29.8681 18.4666 29.8865 18.5699C29.9866 19.1347 30.3473 19.6089 30.8405 19.8638C31.082 19.9887 31.3549 20.061 31.6443 20.0654C32.0947 20.8653 32.3931 21.649 32.513 22.3932C32.6879 23.4782 32.4518 24.3527 31.7905 25.0687C31.0781 25.8413 29.884 26.3993 28.3688 26.6985C28.1513 26.7417 27.9274 26.7799 27.6974 26.8119C27.049 26.9019 26.3532 26.9501 25.6166 26.9501C25.5511 26.9501 25.4838 26.9465 25.4176 26.9458C25.2084 26.9433 24.9985 26.9397 24.7858 26.9307C23.952 26.8943 23.0924 26.8033 22.2179 26.6636C22.0038 26.3072 21.6715 26.0307 21.2744 25.8885C21.1214 25.8338 20.9591 25.7988 20.7899 25.787C20.7477 25.7841 20.7056 25.7805 20.6624 25.7805C20.2744 25.7805 19.9154 25.9032 19.6202 26.111C19.2459 26.0123 18.8707 25.9058 18.4949 25.7902C18.2591 25.7178 18.0233 25.6415 17.7875 25.5627C16.9905 25.2966 16.1949 24.9942 15.4066 24.6573C15.1823 24.5619 14.9594 24.4646 14.737 24.3635C13.9723 24.0161 13.216 23.6388 12.4762 23.2295C11.5924 22.7417 10.7555 22.2207 9.9714 21.6775C9.91596 21.639 9.8598 21.6004 9.80473 21.5619C9.69745 21.4863 9.59125 21.4104 9.48649 21.334C9.3713 21.2509 9.25826 21.1666 9.14558 21.0824C8.68947 20.74 8.2546 20.3904 7.84421 20.0358C7.6923 19.9048 7.54398 19.7727 7.39854 19.6398C7.22899 19.485 7.06231 19.3302 6.90211 19.174C6.69008 18.9677 6.48596 18.7603 6.29049 18.5519C4.72093 16.8786 3.71115 15.1628 3.46096 13.6173C3.28492 12.5308 3.52036 11.6545 4.17986 10.9392C4.89768 10.1619 6.10149 9.60175 7.6293 9.30367C7.88849 8.52389 8.18332 7.7722 8.51236 7.05362C7.62534 7.14542 6.79592 7.30743 6.03453 7.53783C6.27969 7.25775 6.53204 6.9845 6.79592 6.72242C7.79165 5.73312 8.91879 4.87738 10.1464 4.17716C10.5434 3.95072 10.9509 3.74084 11.3685 3.54859C10.6809 4.37589 10.056 5.33063 9.50341 6.38797C9.39901 6.58741 9.29822 6.79118 9.19922 6.99782C8.86803 7.69047 8.56743 8.42273 8.30032 9.19098C8.2276 9.39979 8.15812 9.61111 8.09045 9.82532C7.93169 10.329 7.78697 10.8459 7.65702 11.3759C7.3719 11.4835 7.12063 11.6606 6.92479 11.8871C6.64976 12.2053 6.48236 12.619 6.48236 13.0726C6.48236 13.2933 6.52376 13.5039 6.59576 13.6994C6.70052 13.983 6.87331 14.2332 7.09543 14.4302C6.95179 15.5844 6.87583 16.7778 6.87583 18.0004C6.87583 18.108 6.87979 18.2138 6.88087 18.3211C7.15951 18.6102 7.45614 18.8982 7.76897 19.1833C8.15128 18.7215 8.55412 18.2578 8.9735 17.7937C8.98142 16.7285 9.04874 15.6805 9.17546 14.6613C9.46525 14.5007 9.70537 14.2631 9.8706 13.9766C10.024 13.7102 10.1129 13.4023 10.1129 13.0729C10.1129 12.9747 10.1028 12.8789 10.088 12.7849C10.0344 12.4498 9.8904 12.1452 9.68017 11.8979C9.8688 11.1217 10.0931 10.3707 10.3534 9.65107C10.4253 9.45199 10.5009 9.25615 10.5783 9.06174C10.8667 8.33849 11.19 7.64835 11.5503 7.00034C11.659 6.80486 11.7714 6.61333 11.8862 6.42541C11.8966 6.40885 11.906 6.39085 11.9164 6.37393C13.6214 3.61447 15.7817 2.09452 17.9996 2.09452C20.2038 2.09452 22.3511 3.59683 24.051 6.32461C24.7343 6.01608 25.3934 5.75364 26.0227 5.54015C25.5936 4.81654 25.1292 4.148 24.6306 3.54859C25.0482 3.74084 25.4557 3.95072 25.8528 4.17716C26.3737 4.47417 26.8766 4.7989 27.359 5.15098C27.5681 5.30399 27.7737 5.46167 27.9756 5.62439C27.6333 5.69099 27.2751 5.77848 26.9022 5.88684C26.7135 5.94156 26.5206 6.0024 26.3247 6.06756C25.7023 6.27457 25.0446 6.53377 24.3588 6.84158C24.1803 6.92186 23.9999 7.00502 23.8174 7.09178C22.9145 7.52163 21.9681 8.0314 20.9925 8.61497C20.7823 8.74098 20.5706 8.86986 20.3575 9.00234C19.6454 9.44587 18.9204 9.92684 18.1871 10.4434C17.9888 10.5831 17.7897 10.7253 17.5903 10.8704C16.9941 11.3039 16.3944 11.7589 15.7932 12.2359C15.62 12.1808 15.4354 12.151 15.2442 12.151C15.1304 12.151 15.0196 12.1628 14.9116 12.1826C14.2798 12.2996 13.7643 12.7439 13.5447 13.3332C13.4712 13.5305 13.4291 13.7433 13.4291 13.9661C13.4291 14.0482 13.4367 14.1285 13.4468 14.2073C12.0219 15.472 10.7213 16.7583 9.56605 18.0263C9.36662 18.2448 9.17222 18.4626 8.98178 18.6804C8.71827 18.981 8.46268 19.2805 8.2168 19.5776C8.49004 19.813 8.77299 20.047 9.06782 20.2774C9.27662 20.4409 9.49153 20.6029 9.71041 20.7634C9.76117 20.8005 9.8112 20.8372 9.86232 20.8743C11.2785 19.1668 12.982 17.4186 14.8727 15.7431C14.9926 15.768 15.1171 15.7816 15.2446 15.7816C15.4587 15.7816 15.6639 15.7428 15.8547 15.6744C16.2651 15.5278 16.6071 15.2384 16.8202 14.8647C16.9718 14.5997 17.0596 14.2937 17.0596 13.9661C17.0596 13.9463 17.0575 13.9272 17.0568 13.9078C18.0608 13.1071 19.0396 12.3853 19.9817 11.7424C20.1793 11.6074 20.3752 11.4767 20.5692 11.3485C21.3151 10.8567 22.0358 10.4154 22.7259 10.0226C22.9386 9.90164 23.1492 9.78392 23.3555 9.67195C23.835 9.41239 24.298 9.17694 24.7426 8.9667C24.9262 8.87958 25.1054 8.79858 25.2826 8.71974C25.9907 8.40509 26.6451 8.15632 27.238 7.97128C27.4371 7.90936 27.6297 7.8532 27.8147 7.80568C28.4436 7.64259 28.9879 7.56195 29.4318 7.56195C29.8181 7.56195 30.0031 7.62531 30.0661 7.65339L30.0676 7.65375L30.0679 7.65519C30.1482 7.91836 30.1104 9.03294 28.9077 11.1714C29.0952 11.9324 29.2543 12.7129 29.3778 13.5107C29.4977 13.6094 29.6165 13.7084 29.7331 13.8081C30.6587 12.435 31.3441 11.1519 31.7509 10.0204C31.8819 10.2458 32.0076 10.4741 32.1278 10.7059C33.261 12.8922 33.9054 15.3712 33.9054 17.9993C33.9047 18.1998 33.8968 18.3978 33.8896 18.5955ZM11.2555 27.0283C11.5316 27.6871 11.8405 28.3135 12.1799 28.9035C13.0763 28.4758 14.0159 27.9693 14.9836 27.3908C14.1873 27.0697 13.3985 26.7165 12.6217 26.3331C12.1493 26.5891 11.6929 26.8205 11.2555 27.0283ZM26.2923 15.2632C26.2329 15.2197 26.1743 15.1761 26.1145 15.1329C24.5313 17.0417 22.5887 19.0008 20.4277 20.8516C18.8927 22.1671 17.4038 23.3018 15.9951 24.2634C16.7878 24.5907 17.587 24.8815 18.3855 25.1357C19.5137 24.316 20.6556 23.416 21.7914 22.4421C23.5168 20.9647 25.0759 19.4472 26.4338 17.9554C26.432 17.0417 26.3827 16.1424 26.2923 15.2632ZM29.0981 16.8602C29.0841 16.4988 29.0625 16.1406 29.0355 15.7852C29.0131 15.4897 28.9865 15.1963 28.9552 14.9054C28.9159 14.5378 28.8695 14.1738 28.8166 13.8142C28.7741 13.5248 28.727 13.2382 28.6758 12.9545C28.6121 12.6021 28.5441 12.2525 28.4678 11.909C28.4058 11.6315 28.3403 11.3575 28.2705 11.0864C28.039 10.1875 27.7633 9.32635 27.4486 8.50805C26.8399 8.69453 26.1843 8.9505 25.4985 9.26263C25.7394 9.8876 25.9536 10.5374 26.139 11.2085C26.2153 11.4842 26.2862 11.7636 26.3532 12.0458C26.4655 12.5225 26.5648 13.0085 26.6494 13.5028C26.6955 13.7714 26.7373 14.0421 26.7751 14.3153C26.8039 14.5245 26.8312 14.7344 26.8554 14.9457C26.8856 15.2121 26.9115 15.4803 26.9338 15.7503C26.976 16.2615 27.0044 16.7785 27.0174 17.3009C27.0235 17.5334 27.0274 17.7664 27.0274 18.0007C27.0274 18.0637 27.0253 18.126 27.0249 18.1886C27.0048 21.1202 26.526 23.9164 25.6433 26.3554C26.4496 26.3543 27.211 26.2931 27.9069 26.1776C28.682 23.7234 29.1222 20.9459 29.1222 18.0007C29.1222 17.9042 29.1186 17.8092 29.1175 17.7131C29.1154 17.4269 29.1089 17.1428 29.0981 16.8602ZM26.004 14.3304C26.0688 14.3754 26.1329 14.4201 26.1969 14.4655C26.1825 14.3582 26.1692 14.2502 26.153 14.1436C26.0231 13.2663 25.8467 12.4145 25.6292 11.5937C25.2635 11.3723 24.892 11.1534 24.5075 10.941C24.1335 10.734 23.7562 10.5381 23.3778 10.3473C22.6737 10.7433 21.9562 11.1786 21.2381 11.6437C22.0012 11.99 22.7554 12.3659 23.4941 12.7745C24.3797 13.2634 25.2185 13.7858 26.004 14.3304ZM19.6562 8.7399C17.1025 7.81468 14.5584 7.24551 12.2098 7.0457C11.8405 7.68255 11.5053 8.36009 11.2098 9.07722C13.2016 9.16542 15.336 9.55891 17.4797 10.217C18.2116 9.69103 18.9384 9.19746 19.6562 8.7399Z" fill="#334155"/>
</svg>
